<?xml version="1.0" standalone="no"?>
<!DOCTYPE svg PUBLIC "-//W3C//DTD SVG 20010904//EN"
 "http://www.w3.org/TR/2001/REC-SVG-20010904/DTD/svg10.dtd">
<svg version="1.0" xmlns="http://www.w3.org/2000/svg"
 width="8000.000000pt" height="8000.000000pt" viewBox="0 0 8000.000000 8000.000000"
 preserveAspectRatio="xMidYMid meet">

<g transform="translate(0.000000,8000.000000) scale(0.100000,-0.100000)"
fill="#000000" stroke="none">
<path d="M39370 75170 c-2277 -110 -4409 -679 -6540 -1745 -3861 -1932 -7449
-5381 -10445 -10040 -2391 -3718 -4340 -8112 -5659 -12755 -867 -3053 -1453
-6137 -1745 -9190 -99 -1033 -159 -1958 -203 -3145 -17 -463 -18 -2294 0
-2620 51 -974 113 -1640 228 -2458 442 -3140 1484 -6179 3071 -8957 856 -1496
1887 -2930 3038 -4225 1842 -2073 4007 -3830 6390 -5188 698 -397 1499 -802
2245 -1134 2780 -1239 5772 -1960 8825 -2128 502 -27 810 -35 1425 -35 615 0
923 8 1425 35 2872 158 5658 797 8315 1908 921 385 1885 859 2755 1354 2237
1275 4284 2902 6050 4813 1893 2048 3421 4371 4552 6923 1204 2720 1913 5629
2098 8607 37 610 40 726 40 1750 0 1129 -14 1651 -70 2630 -349 6096 -1845
12281 -4320 17860 -501 1128 -1096 2337 -1663 3375 -2200 4033 -4868 7408
-7762 9820 -2471 2059 -5033 3424 -7675 4088 -952 240 -1822 375 -2845 443
-274 18 -1258 27 -1530 14z m1230 -1240 c2048 -97 3983 -608 5945 -1569 2538
-1245 4978 -3206 7213 -5799 1136 -1319 2262 -2871 3267 -4507 3839 -6249
6317 -14157 6860 -21895 129 -1847 154 -3617 70 -4940 -163 -2532 -724 -5011
-1665 -7355 -1044 -2600 -2488 -4930 -4353 -7027 -582 -655 -1369 -1441 -2033
-2029 -3889 -3449 -8810 -5543 -13979 -5949 -1051 -82 -2224 -96 -3255 -39
-2131 117 -4208 509 -6196 1168 -4099 1359 -7693 3746 -10555 7011 -2225 2540
-3889 5529 -4882 8770 -545 1778 -885 3660 -997 5520 -98 1629 -30 3881 180
6040 515 5273 1868 10490 3962 15285 702 1606 1503 3188 2335 4614 2029 3473
4366 6333 6913 8460 2890 2414 5928 3816 9020 4165 335 38 665 64 1030 79 179
8 931 6 1120 -3z"/>
</g>
</svg>
